ffmpeg version N-95760-g315a449 Copyright (c) 2000-2019 the FFmpeg developers
  built with gcc 7 (Ubuntu 7.4.0-1ubuntu1~18.04.1)
  configuration: --prefix=/home/vagrant/bin
  libavutil      56. 36.100 / 56. 36.100
  libavcodec     58. 62.100 / 58. 62.100
  libavformat    58. 35.100 / 58. 35.100
  libavdevice    58.  9.100 / 58.  9.100
  libavfilter     7. 66.100 /  7. 66.100
  libswscale      5.  6.100 /  5.  6.100
  libswresample   3.  6.100 /  3.  6.100
Input #0, mov,mp4,m4a,3gp,3g2,mj2, from '../../testcases/sample1.mp4':
  Metadata:
    major_brand     : mp42
    minor_version   : 1
    compatible_brands: isommp41mp42
    creation_time   : 2019-11-02T16:22:42.000000Z
  Duration: 00:00:00.03, start: 0.000000, bitrate: 3879 kb/s
    Stream #0:0(und): Video: h264 (Constrained Baseline) (avc1 / 0x31637661), yuv420p, 480x270 [SAR 1:1 DAR 16:9], 3297 kb/s, 30 fps, 30 tbr, 30 tbn, 60 tbc (default)
    Metadata:
      creation_time   : 2019-11-02T16:22:42.000000Z
      handler_name    : Core Media Video
      encoder         : AVC Coding
    Stream #0:1(und): Audio: aac (LC) (mp4a / 0x6134706D), 48000 Hz, stereo, fltp, 111 kb/s (default)
    Metadata:
      creation_time   : 2019-11-02T16:22:42.000000Z
      handler_name    : Core Media Audio
Stream mapping:
  Stream #0:0 -> #0:0 (h264 (native) -> mpeg4 (native))
  Stream #0:1 -> #0:1 (aac (native) -> ac3 (native))
Press [q] to stop, [?] for help
Output #0, avi, to 'sample1.avi':
  Metadata:
    major_brand     : mp42
    minor_version   : 1
    compatible_brands: isommp41mp42
    ISFT            : Lavf58.35.100
    Stream #0:0(und): Video: mpeg4 (FMP4 / 0x34504D46), yuv420p, 480x270 [SAR 1:1 DAR 16:9], q=2-31, 200 kb/s, 30 fps, 30 tbn, 30 tbc (default)
    Metadata:
      creation_time   : 2019-11-02T16:22:42.000000Z
      handler_name    : Core Media Video
      encoder         : Lavc58.62.100 mpeg4
    Side data:
      cpb: bitrate max/min/avg: 0/0/200000 buffer size: 0 vbv_delay: N/A
    Stream #0:1(und): Audio: ac3 ([0] [0][0] / 0x2000), 48000 Hz, stereo, fltp, 192 kb/s (default)
    Metadata:
      creation_time   : 2019-11-02T16:22:42.000000Z
      handler_name    : Core Media Audio
      encoder         : Lavc58.62.100 ac3
frame=    1 fps=0.0 q=3.1 Lsize=      17kB time=00:00:00.06 bitrate=2229.8kbits/s speed=6.56x    
video:6kB audio:2kB subtitle:0kB other streams:0kB global headers:0kB muxing overhead: 129.457169%
